<?xml version="1.0" encoding="UTF-8" standalone="no"?>
<!-- Created with Inkscape (http://www.inkscape.org/) -->

<svg
   version="1.1"
   id="svg55"
   width="83.199997"
   height="72.959999"
   viewBox="0 0 83.199997 72.959999"
   sodipodi:docname="logo.png"
   inkscape:export-filename="logo.svg"
   inkscape:export-xdpi="57.69231"
   inkscape:export-ydpi="57.69231"
   xmlns:inkscape="http://www.inkscape.org/namespaces/inkscape"
   xmlns:sodipodi="http://sodipodi.sourceforge.net/DTD/sodipodi-0.dtd"
   xmlns="http://www.w3.org/2000/svg"
   xmlns:svg="http://www.w3.org/2000/svg">
  <defs
     id="defs59" />
  <sodipodi:namedview
     id="namedview57"
     pagecolor="#505050"
     bordercolor="#ffffff"
     borderopacity="1"
     inkscape:showpageshadow="0"
     inkscape:pageopacity="0"
     inkscape:pagecheckerboard="1"
     inkscape:deskcolor="#505050"
     showgrid="false" />
  <g
     inkscape:groupmode="layer"
     inkscape:label="Image"
     id="g61">
    <path
       style="fill:#000000;stroke:#ffffff;stroke-width:1.5;stroke-dasharray:none;stroke-opacity:1"
       d="M 1.0428537,70.274636 C 1.6542048,69.111583 8.542641,53.039999 16.350489,34.56 L 30.546577,0.95999999 45.193287,0.77505887 c 8.696538,-0.10980941 16.336695,0.1030336 18.806711,0.52392603 10.79735,1.839876 15.43525,6.4915795 15.569017,15.6153411 0.118573,8.08764 -3.990944,13.449539 -12.369017,16.138517 l -3.52,1.129758 3.52,0.512897 c 9.910233,1.444014 15.229567,6.532916 15.84686,15.160367 0.808173,11.295309 -5.60752,18.847494 -18.295712,21.536672 -2.97855,0.631276 -8.826843,0.908601 -19.324584,0.916352 l -15.053436,0.01111 0.246065,-8.96 0.246065,-8.96 H 22.11664 13.368024 l -1.352303,3.04 c -0.743767,1.672 -2.2795754,5.632 -3.4129079,8.8 l -2.0606034,5.76 -3.3054517,0.194637 -3.30545187,0.194637 z M 61.827176,67.167481 c 3.544297,-1.71577 5.094716,-3.89855 6.406722,-9.01982 1.899085,-7.412833 0.106957,-15.3767 -4.140921,-18.401452 -2.743308,-1.95341 -8.622571,-3.26621 -14.627442,-3.26621 h -5.305537 v 15.953073 c 0,14.63846 0.09229,15.980821 1.12,16.289794 0.616,0.185197 3.960241,0.216403 7.431646,0.06934 4.715642,-0.199776 7.020653,-0.610611 9.115532,-1.624723 z M 30.719999,31.573333 c 0,-10.442666 -0.109477,-18.866666 -0.243282,-18.72 C 30.342912,13 26.958912,21.328 22.956717,31.36 c -4.002195,10.031999 -7.372718,18.455999 -7.490051,18.719999 -0.117333,0.264 3.266666,0.48 7.52,0.48 h 7.733333 z m 27.082364,0.139427 c 5.238624,-1.868327 7.442063,-5.770398 7.46358,-13.217258 C 65.286762,11.289833 63.651457,7.5959289 59.479348,5.424474 57.272397,4.2758235 50.671619,3.5819514 47.078001,4.1208477 L 44.159998,4.5584292 V 18.599214 32.64 l 5.6,-0.02809 c 3.08,-0.01545 6.699064,-0.420067 8.042365,-0.899148 z"
       id="path223" />
  </g>
</svg>
