<?xml version="1.0" encoding="UTF-8" standalone="no"?>
<!DOCTYPE svg PUBLIC "-//W3C//DTD SVG 1.1//EN"
 "http://www.w3.org/Graphics/SVG/1.1/DTD/svg11.dtd">
<!-- Generated by graphviz version 2.44.0 (0)
 -->
<!-- Title: G Pages: 1 -->
<svg width="242pt" height="260pt"
 viewBox="0.00 0.00 242.00 260.00" xmlns="http://www.w3.org/2000/svg" xmlns:xlink="http://www.w3.org/1999/xlink">
<g id="graph0" class="graph" transform="scale(1 1) rotate(0) translate(4 256)">
<title>G</title>
<polygon fill="transparent" stroke="transparent" points="-4,4 -4,-256 238,-256 238,4 -4,4"/>
<!-- 1 -->
<g id="node1" class="node">
<title>1</title>
<ellipse fill="lightgrey" stroke="black" cx="171" cy="-234" rx="27" ry="18"/>
<text text-anchor="middle" x="171" y="-230.3" font-family="Times-Roman" font-size="14.00">1</text>
</g>
<!-- 2 -->
<g id="node2" class="node">
<title>2</title>
<ellipse fill="lightgrey" stroke="black" cx="135" cy="-162" rx="27" ry="18"/>
<text text-anchor="middle" x="135" y="-158.3" font-family="Times-Roman" font-size="14.00">2</text>
</g>
<!-- 1&#45;&gt;2 -->
<g id="edge1" class="edge">
<title>1&#45;&gt;2</title>
<path fill="none" stroke="gray" d="M162.65,-216.76C158.29,-208.28 152.85,-197.71 147.96,-188.2"/>
<polygon fill="gray" stroke="gray" points="150.99,-186.44 143.3,-179.15 144.77,-189.64 150.99,-186.44"/>
</g>
<!-- 3 -->
<g id="node3" class="node">
<title>3</title>
<ellipse fill="lightgrey" stroke="black" cx="207" cy="-162" rx="27" ry="18"/>
<text text-anchor="middle" x="207" y="-158.3" font-family="Times-Roman" font-size="14.00">3</text>
</g>
<!-- 1&#45;&gt;3 -->
<g id="edge2" class="edge">
<title>1&#45;&gt;3</title>
<path fill="none" stroke="gray" d="M179.35,-216.76C183.71,-208.28 189.15,-197.71 194.04,-188.2"/>
<polygon fill="gray" stroke="gray" points="197.23,-189.64 198.7,-179.15 191.01,-186.44 197.23,-189.64"/>
</g>
<!-- 2&#45;&gt;3 -->
<g id="edge8" class="edge">
<title>2&#45;&gt;3</title>
<path fill="none" stroke="blue" d="M162,-162C164.61,-162 167.23,-162 169.84,-162"/>
<polygon fill="blue" stroke="blue" points="169.93,-165.5 179.93,-162 169.93,-158.5 169.93,-165.5"/>
</g>
<!-- 4 -->
<g id="node4" class="node">
<title>4</title>
<ellipse fill="lightgrey" stroke="black" cx="63" cy="-90" rx="27" ry="18"/>
<text text-anchor="middle" x="63" y="-86.3" font-family="Times-Roman" font-size="14.00">4</text>
</g>
<!-- 2&#45;&gt;4 -->
<g id="edge3" class="edge">
<title>2&#45;&gt;4</title>
<path fill="none" stroke="gray" d="M120.43,-146.83C110.25,-136.94 96.48,-123.55 84.97,-112.36"/>
<polygon fill="gray" stroke="gray" points="87.41,-109.85 77.8,-105.38 82.53,-114.87 87.41,-109.85"/>
</g>
<!-- 5 -->
<g id="node5" class="node">
<title>5</title>
<ellipse fill="lightgrey" stroke="black" cx="135" cy="-90" rx="27" ry="18"/>
<text text-anchor="middle" x="135" y="-86.3" font-family="Times-Roman" font-size="14.00">5</text>
</g>
<!-- 2&#45;&gt;5 -->
<g id="edge4" class="edge">
<title>2&#45;&gt;5</title>
<path fill="none" stroke="gray" d="M135,-143.7C135,-135.98 135,-126.71 135,-118.11"/>
<polygon fill="gray" stroke="gray" points="138.5,-118.1 135,-108.1 131.5,-118.1 138.5,-118.1"/>
</g>
<!-- 6 -->
<g id="node6" class="node">
<title>6</title>
<ellipse fill="lightgrey" stroke="black" cx="207" cy="-90" rx="27" ry="18"/>
<text text-anchor="middle" x="207" y="-86.3" font-family="Times-Roman" font-size="14.00">6</text>
</g>
<!-- 3&#45;&gt;6 -->
<g id="edge5" class="edge">
<title>3&#45;&gt;6</title>
<path fill="none" stroke="gray" d="M207,-143.7C207,-135.98 207,-126.71 207,-118.11"/>
<polygon fill="gray" stroke="gray" points="210.5,-118.1 207,-108.1 203.5,-118.1 210.5,-118.1"/>
</g>
<!-- 4&#45;&gt;5 -->
<g id="edge9" class="edge">
<title>4&#45;&gt;5</title>
<path fill="none" stroke="blue" d="M90,-90C92.61,-90 95.23,-90 97.84,-90"/>
<polygon fill="blue" stroke="blue" points="97.93,-93.5 107.93,-90 97.93,-86.5 97.93,-93.5"/>
</g>
<!-- 7 -->
<g id="node7" class="node">
<title>7</title>
<ellipse fill="lightgrey" stroke="black" cx="27" cy="-18" rx="27" ry="18"/>
<text text-anchor="middle" x="27" y="-14.3" font-family="Times-Roman" font-size="14.00">7</text>
</g>
<!-- 4&#45;&gt;7 -->
<g id="edge6" class="edge">
<title>4&#45;&gt;7</title>
<path fill="none" stroke="gray" d="M54.65,-72.76C50.29,-64.28 44.85,-53.71 39.96,-44.2"/>
<polygon fill="gray" stroke="gray" points="42.99,-42.44 35.3,-35.15 36.77,-45.64 42.99,-42.44"/>
</g>
<!-- 8 -->
<g id="node8" class="node">
<title>8</title>
<ellipse fill="lightgrey" stroke="black" cx="99" cy="-18" rx="27" ry="18"/>
<text text-anchor="middle" x="99" y="-14.3" font-family="Times-Roman" font-size="14.00">8</text>
</g>
<!-- 4&#45;&gt;8 -->
<g id="edge7" class="edge">
<title>4&#45;&gt;8</title>
<path fill="none" stroke="gray" d="M71.35,-72.76C75.71,-64.28 81.15,-53.71 86.04,-44.2"/>
<polygon fill="gray" stroke="gray" points="89.23,-45.64 90.7,-35.15 83.01,-42.44 89.23,-45.64"/>
</g>
<!-- 7&#45;&gt;8 -->
<g id="edge10" class="edge">
<title>7&#45;&gt;8</title>
<path fill="none" stroke="blue" d="M54,-18C56.61,-18 59.23,-18 61.84,-18"/>
<polygon fill="blue" stroke="blue" points="61.93,-21.5 71.93,-18 61.93,-14.5 61.93,-21.5"/>
</g>
</g>
</svg>
